<svg width="88" height="88" viewBox="0 0 88 88" fill="none" xmlns="http://www.w3.org/2000/svg">
<g clip-path="url(#clip0_1_1982)">
<path d="M77 22H49.17L61.2334 9.93671L58.6667 7.33337L44 22L29.3334 7.33337L26.73 9.93671L38.83 22H11C6.96669 22 3.66669 25.2634 3.66669 29.3334V73.3334C3.66669 77.3667 6.96669 80.6667 11 80.6667H77C81.0333 80.6667 84.3334 77.3667 84.3334 73.3334V29.3334C84.3334 25.2634 81.0333 22 77 22ZM77 73.3334H11V29.3334H77V73.3334Z" fill="#12CDD9"/>
<path d="M54 37C56.2091 37 58 38.7909 58 41V61C58 63.2091 56.2091 65 54 65H34C31.7909 65 30 63.2091 30 61V41C30 38.7909 31.7909 37 34 37H54ZM39.5078 46.6777C38.6424 46.6778 37.8584 46.8693 37.1562 47.2529C36.4621 47.6286 35.9148 48.1517 35.5146 48.8213C35.1145 49.491 34.9141 50.2467 34.9141 51.0879C34.9141 51.9288 35.1101 52.684 35.502 53.3535C35.9021 54.0231 36.4495 54.5498 37.1436 54.9336C37.8459 55.3093 38.6304 55.4971 39.4961 55.4971C40.1983 55.497 40.8392 55.3748 41.4189 55.1299C42.0069 54.8849 42.5012 54.5299 42.9014 54.0645L41.8721 53.084C41.2514 53.7618 40.4876 54.1006 39.5811 54.1006C38.9932 54.1005 38.4664 53.9748 38.001 53.7217C37.5356 53.4604 37.1725 53.1008 36.9111 52.6436C36.6499 52.1863 36.5186 51.6676 36.5186 51.0879C36.5186 50.5082 36.6499 49.9895 36.9111 49.5322C37.1725 49.0749 37.5355 48.719 38.001 48.4658C38.4664 48.2045 38.9932 48.0743 39.5811 48.0742C40.4874 48.0742 41.2515 48.4086 41.8721 49.0781L42.9014 48.1104C42.5013 47.645 42.0113 47.2899 41.4316 47.0449C40.8518 46.7999 40.2101 46.6777 39.5078 46.6777ZM44.5322 46.7998V55.375H46.1123V49.5684L50.8408 55.375H52.1514V46.7998H50.5713V52.6064L45.8428 46.7998H44.5322Z" fill="#12CDD9"/>
</g>
<defs>
<clipPath id="clip0_1_1982">
<rect width="88" height="88" fill="white"/>
</clipPath>
</defs>
</svg>
